<svg xmlns="http://www.w3.org/2000/svg" viewBox="0 0 200 200" width="200" height="200">
  <rect width="200" height="200" fill="#E8F0F8"/>
  <g fill="#A8D0F0" opacity="0.4">
    <circle cx="30" cy="30" r="3"/>
    <circle cx="100" cy="60" r="2.5"/>
    <circle cx="170" cy="40" r="3"/>
    <circle cx="50" cy="100" r="2"/>
    <circle cx="150" cy="120" r="3"/>
    <circle cx="80" cy="150" r="2.5"/>
    <circle cx="20" cy="170" r="2"/>
    <circle cx="180" cy="180" r="3"/>
    <circle cx="120" cy="180" r="2"/>
  </g>
  <g stroke="#A8D0F0" stroke-width="1" fill="none" opacity="0.3">
    <g transform="translate(60, 50)">
      <line x1="-6" y1="0" x2="6" y2="0"/>
      <line x1="0" y1="-6" x2="0" y2="6"/>
      <line x1="-4" y1="-4" x2="4" y2="4"/>
      <line x1="-4" y1="4" x2="4" y2="-4"/>
    </g>
    <g transform="translate(140, 90)">
      <line x1="-5" y1="0" x2="5" y2="0"/>
      <line x1="0" y1="-5" x2="0" y2="5"/>
      <line x1="-3.5" y1="-3.5" x2="3.5" y2="3.5"/>
      <line x1="-3.5" y1="3.5" x2="3.5" y2="-3.5"/>
    </g>
    <g transform="translate(40, 140)">
      <line x1="-5" y1="0" x2="5" y2="0"/>
      <line x1="0" y1="-5" x2="0" y2="5"/>
      <line x1="-3.5" y1="-3.5" x2="3.5" y2="3.5"/>
      <line x1="-3.5" y1="3.5" x2="3.5" y2="-3.5"/>
    </g>
  </g>
</svg>
