<svg xmlns="http://www.w3.org/2000/svg" viewBox="0 0 800 500" width="800" height="500">
  <!-- 따뜻한 배경 -->
  <defs>
    <radialGradient id="warm" cx="50%" cy="40%" r="60%">
      <stop offset="0%" stop-color="#FFE5B4"/>
      <stop offset="100%" stop-color="#F4D5A0"/>
    </radialGradient>
  </defs>
  <rect width="800" height="500" fill="url(#warm)"/>
  <rect y="380" width="800" height="120" fill="#C9A57B"/>
  
  <!-- 빛 광선 -->
  <g opacity="0.4">
    <path d="M 400 100 L 200 0 L 250 0 L 400 80 Z" fill="#FFF4B0"/>
    <path d="M 400 100 L 600 0 L 550 0 L 400 80 Z" fill="#FFF4B0"/>
    <path d="M 400 100 L 100 100 L 100 50 L 400 80 Z" fill="#FFF4B0"/>
    <path d="M 400 100 L 700 100 L 700 50 L 400 80 Z" fill="#FFF4B0"/>
  </g>
  
  <!-- 트로피 / 메달 (중앙) -->
  <g transform="translate(400, 130)">
    <!-- 메달 리본 -->
    <path d="M -30 0 L -45 -50 L -25 -50 L -10 0 Z" fill="#E63946"/>
    <path d="M 30 0 L 45 -50 L 25 -50 L 10 0 Z" fill="#0B3D91"/>
    <!-- 메달 본체 -->
    <circle r="40" fill="#FFD700" stroke="#B8860B" stroke-width="4"/>
    <circle r="32" fill="#FFE066"/>
    <text y="8" text-anchor="middle" fill="#B8860B" font-family="sans-serif" font-size="36" font-weight="bold">★</text>
  </g>
  
  <!-- 가족 (3명, 따뜻한 거실) -->
  <!-- 엄마 -->
  <g transform="translate(280, 280)">
    <circle r="28" fill="#F4D5B5"/>
    <path d="M -25 -5 Q -25 -25, 0 -25 Q 25 -25, 25 -5 Q 25 -20, 0 -22 Q -25 -20, -25 -5 Z" fill="#5A3A2A"/>
    <path d="M -8 5 Q -6 3, -4 5" stroke="#0B3D91" stroke-width="1.5" fill="none"/>
    <path d="M 4 5 Q 6 3, 8 5" stroke="#0B3D91" stroke-width="1.5" fill="none"/>
    <path d="M -7 18 Q 0 24, 7 18" stroke="#0B3D91" stroke-width="2" fill="none"/>
    <ellipse cx="-15" cy="12" rx="5" ry="3" fill="#FFB0B0" opacity="0.6"/>
    <ellipse cx="15" cy="12" rx="5" ry="3" fill="#FFB0B0" opacity="0.6"/>
    <path d="M -35 30 Q -35 90, -25 100 L 25 100 Q 35 90, 35 30 Z" fill="#E63946"/>
  </g>
  
  <!-- 플레이어 -->
  <g transform="translate(400, 290)">
    <circle r="26" fill="#F4D5B5"/>
    <path d="M -22 -8 Q -22 -22, 0 -22 Q 22 -22, 22 -8 Q 22 -18, 0 -20 Q -22 -18, -22 -8 Z" fill="#3D2817"/>
    <path d="M -8 0 Q -6 -2, -4 0" stroke="#0B3D91" stroke-width="1.5" fill="none"/>
    <path d="M 4 0 Q 6 -2, 8 0" stroke="#0B3D91" stroke-width="1.5" fill="none"/>
    <path d="M -8 14 Q 0 22, 8 14" stroke="#0B3D91" stroke-width="2" fill="none"/>
    <ellipse cx="-14" cy="8" rx="4" ry="3" fill="#FFB0B0" opacity="0.6"/>
    <ellipse cx="14" cy="8" rx="4" ry="3" fill="#FFB0B0" opacity="0.6"/>
    <path d="M -32 28 Q -32 90, -22 100 L 22 100 Q 32 90, 32 28 Z" fill="#0B3D91"/>
  </g>
  
  <!-- 동생 -->
  <g transform="translate(510, 300)">
    <circle r="22" fill="#F4D5B5"/>
    <path d="M -18 -8 Q -18 -20, 0 -20 Q 18 -20, 18 -8 Q 18 -16, 0 -18 Q -18 -16, -18 -8 Z" fill="#3D2817"/>
    <path d="M -7 -2 Q -5 -4, -3 -2" stroke="#0B3D91" stroke-width="1.5" fill="none"/>
    <path d="M 3 -2 Q 5 -4, 7 -2" stroke="#0B3D91" stroke-width="1.5" fill="none"/>
    <path d="M -7 10 Q 0 18, 7 10" stroke="#0B3D91" stroke-width="2" fill="none"/>
    <ellipse cx="-12" cy="4" rx="4" ry="3" fill="#FFB0B0" opacity="0.6"/>
    <ellipse cx="12" cy="4" rx="4" ry="3" fill="#FFB0B0" opacity="0.6"/>
    <path d="M -28 22 Q -28 80, -18 90 L 18 90 Q 28 80, 28 22 Z" fill="#F4A261"/>
  </g>
  
  <!-- 김이 나는 머그컵들 -->
  <g transform="translate(150, 340)">
    <rect x="0" y="0" width="40" height="35" rx="2" fill="#FFFFFF" stroke="#0B3D91" stroke-width="2"/>
    <path d="M 40 8 Q 50 8, 50 18 Q 50 28, 40 28" stroke="#0B3D91" stroke-width="2" fill="none"/>
    <path d="M 12 -5 Q 16 -12, 12 -20" stroke="#FFFFFF" stroke-width="2.5" fill="none" opacity="0.7"/>
    <path d="M 22 -5 Q 26 -12, 22 -20" stroke="#FFFFFF" stroke-width="2.5" fill="none" opacity="0.7"/>
    <path d="M 32 -5 Q 36 -12, 32 -20" stroke="#FFFFFF" stroke-width="2.5" fill="none" opacity="0.7"/>
  </g>
  
  <g transform="translate(620, 350)">
    <rect x="0" y="0" width="38" height="32" rx="2" fill="#E63946" stroke="#0B3D91" stroke-width="2"/>
    <path d="M 38 6 Q 47 6, 47 16 Q 47 26, 38 26" stroke="#0B3D91" stroke-width="2" fill="none"/>
    <path d="M 12 -5 Q 16 -12, 12 -20" stroke="#FFFFFF" stroke-width="2.5" fill="none" opacity="0.7"/>
    <path d="M 22 -5 Q 26 -12, 22 -20" stroke="#FFFFFF" stroke-width="2.5" fill="none" opacity="0.7"/>
  </g>
  
  <!-- 텍스트 -->
  <text x="400" y="450" text-anchor="middle" fill="#0B3D91" font-family="sans-serif" font-size="36" font-weight="bold">생존 마스터</text>
  <text x="400" y="478" text-anchor="middle" fill="#5A4A3A" font-family="sans-serif" font-size="16">가족 모두 무사합니다</text>
</svg>
